<svg xmlns="http://www.w3.org/2000/svg" xmlns:xlink="http://www.w3.org/1999/xlink" width="22px" height="22px" viewBox="0 0 22 22" version="1.1">
<g id="surface1">
<path style="fill-rule: nonzero; fill: rgb(255, 255, 255); fill-opacity: 1; opacity: 1; visibility: visible;" d="M 5.394531 6.902344 C 5.761719 6.464844 6.410156 6.40625 6.847656 6.769531 L 10.972656 10.207031 C 11.207031 10.402344 11.34375 10.695312 11.34375 11 C 11.34375 11.304688 11.207031 11.597656 10.972656 11.792969 L 6.847656 15.230469 C 6.566406 15.476562 6.171875 15.550781 5.820312 15.425781 C 5.46875 15.296875 5.210938 14.988281 5.152344 14.621094 C 5.089844 14.25 5.234375 13.878906 5.527344 13.644531 L 8.699219 11 L 5.527344 8.355469 C 5.089844 7.988281 5.03125 7.339844 5.394531 6.902344 Z M 11.34375 14.4375 C 10.773438 14.4375 10.3125 14.898438 10.3125 15.46875 C 10.3125 16.039062 10.773438 16.5 11.34375 16.5 L 15.46875 16.5 C 16.039062 16.5 16.5 16.039062 16.5 15.46875 C 16.5 14.898438 16.039062 14.4375 15.46875 14.4375 Z M 11.34375 14.4375 " data-index="0"></path>
<path style="fill-rule: evenodd; fill: rgb(255, 255, 255); fill-opacity: 1; opacity: 1; visibility: visible;" d="M 0 4.46875 C 0 2.761719 1.386719 1.375 3.09375 1.375 L 18.90625 1.375 C 20.613281 1.375 22 2.761719 22 4.46875 L 22 17.53125 C 22 19.238281 20.613281 20.625 18.90625 20.625 L 3.09375 20.625 C 1.386719 20.625 0 19.238281 0 17.53125 Z M 3.09375 3.4375 C 2.523438 3.4375 2.0625 3.898438 2.0625 4.46875 L 2.0625 17.53125 C 2.0625 18.101562 2.523438 18.5625 3.09375 18.5625 L 18.90625 18.5625 C 19.476562 18.5625 19.9375 18.101562 19.9375 17.53125 L 19.9375 4.46875 C 19.9375 3.898438 19.476562 3.4375 18.90625 3.4375 Z M 3.09375 3.4375 " data-index="1"></path>
</g>
</svg>