<svg xmlns="http://www.w3.org/2000/svg" xmlns:xlink="http://www.w3.org/1999/xlink" width="22px" height="22px" viewBox="0 0 22 22" version="1.1">
<g id="surface1">
<path style="fill-rule: evenodd; fill: rgb(255, 255, 255); fill-opacity: 1; opacity: 1; visibility: visible;" d="M 11 1.320312 C 5.652344 1.320312 1.320312 5.652344 1.320312 11 C 1.320312 16.347656 5.652344 20.679688 11 20.679688 C 16.347656 20.679688 20.679688 16.347656 20.679688 11 C 20.679688 5.652344 16.347656 1.320312 11 1.320312 Z M 9 3.335938 C 5.867188 4.148438 3.492188 6.832031 3.128906 10.121094 L 6.644531 10.121094 C 6.839844 7.6875 7.65625 5.355469 9 3.335938 Z M 13 3.335938 C 14.34375 5.355469 15.160156 7.6875 15.355469 10.121094 L 18.871094 10.121094 C 18.507812 6.832031 16.132812 4.148438 13 3.335938 Z M 13.589844 10.121094 C 13.367188 7.730469 12.46875 5.457031 11 3.566406 C 9.53125 5.457031 8.632812 7.730469 8.410156 10.121094 Z M 8.410156 11.878906 L 13.589844 11.878906 C 13.367188 14.269531 12.46875 16.542969 11 18.433594 C 9.53125 16.542969 8.632812 14.269531 8.410156 11.878906 Z M 6.644531 11.878906 L 3.128906 11.878906 C 3.492188 15.167969 5.867188 17.851562 9 18.664062 C 7.65625 16.644531 6.839844 14.3125 6.644531 11.878906 Z M 13 18.664062 C 14.34375 16.644531 15.160156 14.3125 15.355469 11.878906 L 18.871094 11.878906 C 18.507812 15.167969 16.132812 17.851562 13 18.664062 Z M 13 18.664062 " data-index="0"></path>
</g>
</svg>