<svg xmlns="http://www.w3.org/2000/svg" xmlns:xlink="http://www.w3.org/1999/xlink" width="22px" height="22px" viewBox="0 0 22 22" version="1.1">
<g id="surface1">
<path style="fill-rule: evenodd; fill: rgb(255, 255, 255); fill-opacity: 1; opacity: 1; visibility: visible;" d="M 2.75 1.832031 C 2.242188 1.832031 1.832031 2.242188 1.832031 2.75 L 1.832031 9.167969 C 1.832031 9.671875 2.242188 10.082031 2.75 10.082031 L 9.167969 10.082031 C 9.671875 10.082031 10.082031 9.671875 10.082031 9.167969 L 10.082031 2.75 C 10.082031 2.242188 9.671875 1.832031 9.167969 1.832031 Z M 3.667969 8.25 L 3.667969 3.667969 L 8.25 3.667969 L 8.25 8.25 Z M 3.667969 8.25 " data-index="0"></path>
<path style="fill-rule: evenodd; fill: rgb(255, 255, 255); fill-opacity: 1; visibility: visible; opacity: 1;" d="M 12.832031 1.832031 C 12.328125 1.832031 11.917969 2.242188 11.917969 2.75 L 11.917969 9.167969 C 11.917969 9.671875 12.328125 10.082031 12.832031 10.082031 L 19.25 10.082031 C 19.757812 10.082031 20.167969 9.671875 20.167969 9.167969 L 20.167969 2.75 C 20.167969 2.242188 19.757812 1.832031 19.25 1.832031 Z M 13.75 8.25 L 13.75 3.667969 L 18.332031 3.667969 L 18.332031 8.25 Z M 13.75 8.25 " data-index="1"></path>
<path style="fill-rule: evenodd; fill: rgb(255, 255, 255); fill-opacity: 1; visibility: visible; opacity: 1;" d="M 11.917969 12.832031 C 11.917969 12.328125 12.328125 11.917969 12.832031 11.917969 L 19.25 11.917969 C 19.757812 11.917969 20.167969 12.328125 20.167969 12.832031 L 20.167969 19.25 C 20.167969 19.757812 19.757812 20.167969 19.25 20.167969 L 12.832031 20.167969 C 12.328125 20.167969 11.917969 19.757812 11.917969 19.25 Z M 13.75 13.75 L 13.75 18.332031 L 18.332031 18.332031 L 18.332031 13.75 Z M 13.75 13.75 " data-index="2"></path>
<path style="fill-rule: evenodd; fill: rgb(255, 255, 255); fill-opacity: 1; opacity: 1; visibility: visible;" d="M 2.75 11.917969 C 2.242188 11.917969 1.832031 12.328125 1.832031 12.832031 L 1.832031 19.25 C 1.832031 19.757812 2.242188 20.167969 2.75 20.167969 L 9.167969 20.167969 C 9.671875 20.167969 10.082031 19.757812 10.082031 19.25 L 10.082031 12.832031 C 10.082031 12.328125 9.671875 11.917969 9.167969 11.917969 Z M 3.667969 18.332031 L 3.667969 13.75 L 8.25 13.75 L 8.25 18.332031 Z M 3.667969 18.332031 " data-index="3"></path>
</g>
</svg>