<svg xmlns="http://www.w3.org/2000/svg" xmlns:xlink="http://www.w3.org/1999/xlink" width="22px" height="22px" viewBox="0 0 22 22" version="1.1">
<g id="surface1">
<path style="fill-rule: evenodd; fill: rgb(255, 255, 255); fill-opacity: 1; opacity: 1; visibility: visible;" d="M 3.667969 3.667969 C 3.421875 3.667969 3.191406 3.761719 3.019531 3.933594 C 2.847656 4.105469 2.75 4.339844 2.75 4.582031 L 2.75 17.417969 C 2.75 17.660156 2.847656 17.894531 3.019531 18.066406 C 3.191406 18.238281 3.421875 18.332031 3.667969 18.332031 L 18.332031 18.332031 C 18.578125 18.332031 18.808594 18.238281 18.980469 18.066406 C 19.152344 17.894531 19.25 17.660156 19.25 17.417969 L 19.25 7.332031 C 19.25 7.089844 19.152344 6.855469 18.980469 6.683594 C 18.808594 6.511719 18.578125 6.417969 18.332031 6.417969 L 10.574219 6.417969 C 9.960938 6.417969 9.386719 6.109375 9.046875 5.601562 L 7.757812 3.667969 Z M 1.722656 2.640625 C 2.238281 2.125 2.9375 1.832031 3.667969 1.832031 L 7.757812 1.832031 C 8.371094 1.832031 8.945312 2.140625 9.285156 2.648438 L 10.574219 4.582031 L 18.332031 4.582031 C 19.0625 4.582031 19.761719 4.875 20.277344 5.390625 C 20.792969 5.90625 21.082031 6.605469 21.082031 7.332031 L 21.082031 17.417969 C 21.082031 18.144531 20.792969 18.84375 20.277344 19.359375 C 19.761719 19.875 19.0625 20.167969 18.332031 20.167969 L 3.667969 20.167969 C 2.9375 20.167969 2.238281 19.875 1.722656 19.359375 C 1.207031 18.84375 0.917969 18.144531 0.917969 17.417969 L 0.917969 4.582031 C 0.917969 3.855469 1.207031 3.15625 1.722656 2.640625 Z M 1.722656 2.640625 " data-index="0"></path>
</g>
</svg>